<?xml version="1.0" encoding="UTF-8"?><!-- Generator: Adobe Illustrator 22.0.1, SVG Export Plug-In . SVG Version: 6.00 Build 0)  -->
<svg version="1.1" id="Layer_1" xmlns="http://www.w3.org/2000/svg" xmlns:xlink="http://www.w3.org/1999/xlink" x="0px" y="0px" viewBox="0 0 899.8 784.4" enable-background="new 0 0 899.8 784.4" xml:space="preserve">
	<g>
		<path opacity="0.1" fill="#015793" d="M610.2,314.4l33.9-7.3c1.8-0.4,2.8-2.1,2.4-3.8c-0.3-1.5-1.6-2.5-3.1-2.5l-345.8,74.4   l9.6-1.8c3.4-0.8,5.2,0.1,6,1.3l151.2-20.6c2.7-0.4,5.3,1.2,5.7,3.4c0.4,2.3-1.4,4.4-4.1,4.8l-0.2,0l-151.6,15.2   c0.1,0.8-0.1,1.6-0.6,2.3l224.7-8.9c1.9,0,3.4,1.6,3.3,3.7c-0.1,2.1-1.8,3.8-3.7,3.8l-0.2,0c0,0-163.1,3.3-231.4,4.1   c2.1,0.1,49.1,4,49.1,4l49,4.9l51.6,3.1c0.8,0,1.5,0.8,1.4,1.6c0,0.8-0.8,1.5-1.6,1.4l0,0l-51.6-3.9l-51.5-3.7   c0,0-50.7-3.4-52.4-3.5l320.3,45.9l-44.9-66.6l6.7-10.1l-39.5,3.4l40.4-4.6L610.2,314.4z"/>
		<path opacity="0.1" fill="#015793" d="M899.3,191.1c-1.6-5-6.9-7.8-11.9-6.2l-89.8,28.3c-0.1,0.1-0.3,0.2-0.5,0.3l-488,153.3   l311-67.1l15.3-22.9l257.5-73.5l0.2-0.1C898.2,201.4,901,196,899.3,191.1z"/>
		<linearGradient id="SVGID_1_" gradientUnits="userSpaceOnUse" x1="455.5513" y1="-55.5835" x2="977.1308" y2="592.316">
			<stop offset="0.1899" style="stop-color:#0082B7"/>
			<stop offset="0.6898" style="stop-color:#005793"/>
		</linearGradient>
		<path opacity="0.1" fill="url(#SVGID_1_)" d="M836,312.9l0.2,0c2.1-0.3,3.6-2.4,3.3-4.5c-0.4-2.1-2.4-3.6-4.6-3.3l-0.8,0.1   c-0.4-0.1-0.7-0.3-1.1-0.2l-157.5,26.3c-0.1,0,2.9-0.3,8.1-0.9l-6.6,1.1C676.1,331.6,836,312.9,836,312.9z"/>
		<path opacity="0.1" fill="#015793" d="M249.7,336l7.8,11.4l-30.3-96.5c-0.4-3.4,1.4-5.3,3.2-6.2c0.6-0.4,1.2-0.7,1.8-0.8   c3.2-0.9,7-0.6,8.2,4.3l22.3,97.3c-0.4-33.1-1.7-71.5-1.7-71.5c0.2-1.6,1.1-2.6,2.2-3.1c1.1-0.7,2.4-1,3.5-1c2,0,4.7,0.7,5,3.9   c0.1,1.1,0.1,2.1,0.1,2.1c0,0-1.3,28.2-2.6,63.5l2.5-10.8l0,1.5l0.5-1.9l1.4,12.7c2.4-15.2,8.8-54.3,8.8-54.5   c0.2-1.1,0.8-2.1,1.7-2.7c0.7-0.7,1.7-1.2,2.8-1.2c0,0,0.3,0,0.4,0c1,0.1,1.9,0.6,2.5,1.4c0.6,0.8,0.9,1.9,0.7,3c0,0.1,0,0.1,0,0.2   c0,0.2-7.7,50.4-7.7,50.4l54.6-144.1c0.7-1.7,1.9-3,3.5-3.7c1.5-0.8,3.2-1.1,4.9-0.5c3.2,1,4.8,4.5,3.6,7.8   c-0.1,0.1-0.1,0.2-0.1,0.3l-61.2,142l12.2-21l-1,2.5l1.5-2.9l-7.3,17.1l123-224.4l3.3-6.5c1.6-2.7,0.7-6.1-2-7.7   c-2.7-1.6-6.2-0.7-7.7,2l-19.3,38.9L309,0H22.9l227.3,337.8L249.7,336z"/>
		<path opacity="0.1" fill="#015793" d="M400.1,153.5l-109.2,193l46.3-65.5c0.2-0.3,0.5-0.6,0.8-0.8c0.9-0.9,2.3-1.3,3.4-0.6   c0.7,0.4,1,1.3,1,2.3l13.9-18.4c0.3-0.4,0.6-0.7,0.9-1c1-1,2.6-1.2,3.9-0.5c1.6,0.9,2.1,3,1.2,4.5c0,0,0,0.1-0.1,0.1   c0,0-48.6,60.3-48.4,60.7l178-201l0,0l0.1-0.1c0.7-0.8,1.9-0.9,2.7-0.2c0.8,0.7,0.9,1.9,0.2,2.7L307.2,344.3l-7.4,6.6l254-227   c1.8-1.7,4.8-1.7,6.7,0c0,0,0,0,0,0l0,0c0.5,0.4,0.8,0.9,1.1,1.4c0,0,0,0,0,0c0.8,1.6,0.6,3.5-0.7,4.8l-0.2,0.2L316.3,344   c45.2-31.8,143.6-97.1,143.6-97.1c2.8-1.9,6.6-1.3,8.6,1.3c1.5,1.9,1.5,4.5,0.3,6.4c-0.4,0.7-1,1.4-1.8,2l-0.2,0.1l-81.6,51.5   c1.2-0.1,2.2,0,2.9,1.1c0.9,1.3,0.6,2.5-0.1,3.5c-0.9,1.6-2.8,2.7-2.8,2.7c0,0-48,30.6-62.4,39.3c8.5-4.1,16.4-7,29-13.4   c14.5-7.4,29-14.8,43.4-22.3l43.4-22.4c28.9-14.9,57.8-30,86.6-45c28.9-15,57.6-30.3,86.4-45.4c1-0.5,2.1-0.1,2.6,0.8   c0,0,0,0.1,0,0.1c0,0,0.1,0,0.1,0.1c0.5,0.9,0.1,2-0.8,2.5v0c-29.1,14.7-58.3,29.2-87.3,44c-29.1,14.7-58.2,29.5-87.2,44.4   l-43.5,22.3c-14.5,7.4-29.1,14.9-43.5,22.4c-14.5,7.5-17.1,9.1-31.5,16.8c-4.1,2.2-2.4,2.3-7.3,4.8l39.6-13.9   c1.4-0.6,2.7,0.6,2.7,1.5c0,0.2,0,0.4,0,0.5L625.4,269l18.4-27.4l74.8-28.4l0.1-0.1c2.9-1.2,4.3-4.5,3.1-7.4   c-1.3-2.9-4.6-4.2-7.5-3l-62.1,26.2l78.3-117.1l99.2-58.6l0.2-0.1c3.1-2,4-6.1,1.9-9.1c-2-3.1-6.1-3.9-9.2-1.9l-32.1,19.7   c-0.1,0.1-0.3,0.2-0.4,0.3l-0.2,0.1l-43.5,26.6l-0.8,0.5L498.8,240c0,0,0.7-0.6,1.9-1.4l-1.8,1.1c-0.4-0.6,194.3-128.4,261.3-172.4   L805.3,0h-274L420.1,187.4L400.1,153.5z M514.6,290.1l-0.2,0.1L326,358.5c0-0.1,0.8-0.5,2.4-1.2l-2,0.7   c-0.4-0.8,183.1-78.8,183.1-78.8c3.1-1.3,6.7,0,8.2,2.9c0.4,0.8,0.5,1.7,0.5,2.5C518.2,287,516.9,289.2,514.6,290.1z M571.7,65.4   c0.2-0.2,0.5-0.3,0.8-0.4c0.6-0.2,2.4-1.4,4,0.6c0.6,0.7,0.8,1.7,0.1,2.4l0,0.1L459.1,189l0.8-0.8l-0.6,0.6L571.7,65.4z"/>
		<path opacity="0.1" fill="#015793" d="M612.1,448.1c3.3,0.5,6.6,1.1,9.9,1.6"/>
		<polyline opacity="0.1" fill="#015793" points="596,592.2 622.4,607 595.9,591.3  "/>
		<path opacity="0.1" fill="#015793" d="M626.7,444.3c-4.6-0.7-9.2-1.4-13.9-2.1l-1.3-2L516.4,424c0.6,0.4,1.2,0.8,1.7,1.4   c1.1,1.4,1.5,3.2,1.1,5c0,0,0,0.1,0,0.1c0,0.2,0,0.3,0,0.5c-0.6,3.3-3.8,5.9-7.3,5.9c-0.3,0-0.6,0-0.9-0.1l-0.2,0l-0.3,0h-0.1   L317.2,395l226.9,70.5c3.2,0.8,5.6,4.3,5.3,7.9c0,0.1,0,0.1,0,0.1c0,0.2,0,0.4,0,0.6c-0.2,3-2.2,5-4.8,5.2c0.3,0.1,0.4,0.2,0.7,0.3   l-0.8-0.3c-0.5,0-1,0.1-1.5,0c-0.1,0-0.3-0.1,2.3,1l-236.7-83l15.4,7.5l-6.7-2.5l6.2,3l-14.8-5.5l309.4,143.9   c1.5,0.6,2.3,1.7,2.4,2.9c0.4,0.9,0.3,1.9-0.3,2.8c-1.3,1.8-4.2,2.5-6.6,1.5l-0.3-0.1L302,400.6c14.8,8.5,45.2,26.1,45.3,26.1   c0.7,0.5,3.4,2.8,1.9,5.3c-0.1,0.3-0.3,0.7-0.6,1c-0.4,0.5-1,0.8-1.5,0.9l194.7,122.5c1.7,1,2.6,3,2.3,4.8c0,0.9-0.1,1.7-0.5,2.5   c-1.4,2.2-4.3,3-6.6,1.7l-0.3-0.2l-193.2-132c-0.4-0.2-0.7-0.4-0.7-0.4c-0.8-0.6-24.2-15.2-39.5-25.3L591,682.4L290.4,404.8   c19.6,22.9,60.2,70.2,60.2,70.2c1.1,1.3,1.1,3.1,0.3,4.4c-0.2,0.6-0.4,1.1-0.9,1.4c-1.4,1.3-3.6,1.1-4.9-0.5l-0.1-0.1   c0,0-36.5-45-53.7-67.9l3,6.2l-2.2-3l1.8,3.6l-7.2-10C311,447.3,377,553.8,400,591l19.5-34.2l137,226.7h286.2L788.6,703   L626.7,444.3z"/>
		<path opacity="0.1" fill="#015793" d="M291.2,452.2c0.3,1-0.1,1.6-0.5,2c-0.3,0.8-1.3,1.2-1.6,1.2c-1.2,0.1-1.9-0.8-2.1-1.2   l-12.2-40.4c9.2,36.3,35.9,141.3,35.9,141.3c0.4,1.6,0,3.2-0.7,4.5c-0.6,1.5-1.7,2.7-3.3,3.2c-2.8,0.9-5.6-0.8-6.4-3.8l0-0.2   c0,0-21-103.3-30.1-149.6c-0.7,13.8-2.7,28.5-2.9,28.5c0,0-0.1-0.5-0.3-1.4c-0.1,1.3-0.1,2-0.1,2c-0.3,0-2.9-19.8-4-31.8   c-10.5,34.5-35,110-35,110c-0.2,0.7-0.6,1.3-1.1,1.8c-1.1,1.7-3,2.6-4.9,2.1c-2.2-0.6-3.4-2.9-2.7-5.2l0.1-0.2L259,404.8l-1.4,2.8   l0-0.4l-0.5,1l0.2-2.6l-7.7,12.8l0.2-0.5l-0.7,1.1l3.8-12.5l-3.7,4.2L0,784.4h286.2l107.4-188.2c-23-37.7-92.2-149.1-114.8-184.8   L291.2,452.2z"/>
	</g>
</svg>